<svg xmlns="http://www.w3.org/2000/svg" width="12" height="13" viewBox="0 0 12 13" fill="none">
  <path d="M6 0.5C2.68624 0.5 0 3.18634 0 6.5C0 9.81385 2.68624 12.5 6 12.5C9.31376 12.5 12 9.81385 12 6.5C12 3.18634 9.31376 0.5 6 0.5ZM6 3.5C6.41423 3.5 6.75 3.83581 6.75 4.25C6.75 4.66437 6.41423 5 6 5C5.58577 5 5.25 4.66437 5.25 4.25C5.25 3.83581 5.58577 3.5 6 3.5ZM7.125 9.5H4.875C4.66791 9.5 4.5 9.33228 4.5 9.125C4.5 8.91791 4.66791 8.75 4.875 8.75H5.25V6.5H4.875C4.66791 6.5 4.5 6.33228 4.5 6.125C4.5 5.91791 4.66791 5.75 4.875 5.75H6.375C6.58209 5.75 6.75 5.91791 6.75 6.125V8.75H7.125C7.33209 8.75 7.5 8.91791 7.5 9.125C7.5 9.33228 7.33209 9.5 7.125 9.5Z" fill="black"/>
</svg>