<svg width="14" height="18" viewBox="0 0 14 18" fill="none" xmlns="http://www.w3.org/2000/svg">
<path d="M11.875 6.16667H11.0625V4.54762C11.0625 2.31333 9.2425 0.5 7 0.5C4.7575 0.5 2.9375 2.31333 2.9375 4.54762V6.16667H2.125C1.23125 6.16667 0.5 6.89524 0.5 7.78571V15.881C0.5 16.7714 1.23125 17.5 2.125 17.5H11.875C12.7688 17.5 13.5 16.7714 13.5 15.881V7.78571C13.5 6.89524 12.7688 6.16667 11.875 6.16667ZM7 13.4524C6.10625 13.4524 5.375 12.7238 5.375 11.8333C5.375 10.9429 6.10625 10.2143 7 10.2143C7.89375 10.2143 8.625 10.9429 8.625 11.8333C8.625 12.7238 7.89375 13.4524 7 13.4524ZM4.5625 6.16667V4.54762C4.5625 3.20381 5.65125 2.11905 7 2.11905C8.34875 2.11905 9.4375 3.20381 9.4375 4.54762V6.16667H4.5625Z" fill="white"/>
</svg>
