<svg width="40" height="40" viewBox="0 0 40 40" fill="none" xmlns="http://www.w3.org/2000/svg">
<rect x="0.5" y="0.5" width="39" height="39" rx="10.5" fill="#DCD6D3"/>
<rect x="0.5" y="0.5" width="39" height="39" rx="10.5" stroke="#DCD6D3"/>
<path d="M24.875 17.1667H24.0625V15.5476C24.0625 13.3133 22.2425 11.5 20 11.5C17.7575 11.5 15.9375 13.3133 15.9375 15.5476V17.1667H15.125C14.2312 17.1667 13.5 17.8952 13.5 18.7857V26.881C13.5 27.7714 14.2312 28.5 15.125 28.5H24.875C25.7688 28.5 26.5 27.7714 26.5 26.881V18.7857C26.5 17.8952 25.7688 17.1667 24.875 17.1667ZM20 24.4524C19.1062 24.4524 18.375 23.7238 18.375 22.8333C18.375 21.9429 19.1062 21.2143 20 21.2143C20.8938 21.2143 21.625 21.9429 21.625 22.8333C21.625 23.7238 20.8938 24.4524 20 24.4524ZM17.5625 17.1667V15.5476C17.5625 14.2038 18.6512 13.119 20 13.119C21.3488 13.119 22.4375 14.2038 22.4375 15.5476V17.1667H17.5625Z" fill="white"/>
</svg>
