<svg xmlns="http://www.w3.org/2000/svg" width="18" height="18" viewBox="0 0 18 18" fill="none">
                <path d="M9 18C13.9706 18 18 13.9706 18 9C18 4.02944 13.9706 0 9 0C4.02944 0 0 4.02944 0 9C0 13.9706 4.02944 18 9 18Z" fill="#F4CF16" />
                <path d="M8.99995 17.7848C13.8517 17.7848 17.7848 13.8517 17.7848 8.99995C17.7848 4.1482 13.8517 0.215088 8.99995 0.215088C4.1482 0.215088 0.215088 4.1482 0.215088 8.99995C0.215088 13.8517 4.1482 17.7848 8.99995 17.7848Z" fill="#FFEE1D" />
                <path d="M8.99994 16.7091C6.94076 16.7091 5.00483 15.9072 3.54873 14.4511C2.09267 12.995 1.29077 11.0591 1.29077 8.99994C1.29077 6.94073 2.09267 5.0048 3.54873 3.54873C5.0048 2.09267 6.94076 1.29077 8.99994 1.29077C11.0591 1.29077 12.9951 2.09267 14.4511 3.54873C15.9072 5.0048 16.7091 6.94073 16.7091 8.99994C16.7091 11.0591 15.9072 12.995 14.4511 14.4511C12.995 15.9072 11.0591 16.7091 8.99994 16.7091Z" fill="#EDB61D" />
                <path d="M14.6965 3.80539C13.2733 2.50488 11.4425 1.79276 9.50193 1.79276C7.44268 1.79276 5.50679 2.59452 4.05065 4.05065C2.59452 5.50679 1.79276 7.44268 1.79276 9.50193C1.79276 11.4425 2.50488 13.2733 3.80539 14.6965C3.71826 14.6169 3.63256 14.5351 3.54866 14.4512C2.09252 12.9951 1.29077 11.0592 1.29077 8.99994C1.29077 6.94069 2.09252 5.0048 3.54866 3.54866C5.0048 2.09252 6.94069 1.29077 8.99994 1.29077C11.0592 1.29077 12.9951 2.09252 14.4512 3.54866C14.5351 3.63256 14.6169 3.71826 14.6965 3.80539Z" fill="#D38D13" />
                <path d="M17.9999 8.99996C17.9999 13.9704 13.9704 18 8.99993 18C4.30631 18 0.452084 14.4071 0.0368652 9.82144C0.108937 9.85156 0.183877 9.88168 0.261686 9.9118C0.71814 14.3351 4.45619 17.7848 8.99993 17.7848C13.8517 17.7848 17.7848 13.8517 17.7848 8.99996C17.7848 5.09662 15.239 1.78777 11.7171 0.64359C11.7035 0.55861 11.6899 0.47865 11.6763 0.404785C15.3397 1.54395 17.9999 4.96144 17.9999 8.99996Z" fill="#DBB30E" />
                <path d="M14.6947 3.8036C13.8722 3.05241 12.9134 2.4977 11.876 2.16316C11.8707 2.05093 11.8638 1.94121 11.856 1.83472C12.8166 2.21731 13.6983 2.79567 14.4513 3.54866C14.514 3.61141 14.576 3.67559 14.6363 3.74049C14.656 3.76129 14.6754 3.78245 14.6947 3.8036Z" fill="#BC790D" />
                <path d="M17.7848 8.99993C17.7848 13.8517 13.8517 17.7848 8.99996 17.7848C4.45622 17.7848 0.718173 14.335 0.261719 9.91176C0.588014 10.0376 0.964507 10.1599 1.39407 10.2675C1.65331 11.8448 2.3959 13.2984 3.54869 14.4512C3.61144 14.514 3.67562 14.576 3.74052 14.6362C3.76132 14.6563 3.78248 14.6757 3.80363 14.6947L3.80542 14.6965C5.22857 15.997 7.05941 16.7091 8.99996 16.7091C11.0592 16.7091 12.9951 15.9073 14.4512 14.4512C15.9074 12.9951 16.7091 11.0592 16.7091 8.99993C16.7091 7.05937 15.997 5.22854 14.6965 3.80539C14.6958 3.80467 14.6954 3.80431 14.6947 3.80359C14.6757 3.78244 14.6563 3.76128 14.6363 3.74049C14.576 3.67559 14.514 3.6114 14.4512 3.54865C13.6983 2.79567 12.8165 2.2173 11.8559 1.83471C11.8222 1.37503 11.7695 0.96985 11.7172 0.643555C15.239 1.78774 17.7848 5.09658 17.7848 8.99993Z" fill="#F9D521" />
                <path d="M16.7091 9.0001C16.7091 11.0593 15.9074 12.9952 14.4512 14.4514C12.9951 15.9075 11.0592 16.7093 8.99994 16.7093C7.05939 16.7093 5.22855 15.9972 3.8054 14.6966L3.80361 14.6948C2.69994 13.4861 2.02046 11.9837 1.84082 10.3698C2.89572 10.5889 4.22851 10.7112 5.87038 10.6018C7.21644 10.4372 10.0283 9.71688 11.217 6.59162C11.8398 5.07883 11.9402 3.44879 11.876 2.16333C12.9133 2.49787 13.8721 3.05257 14.6947 3.80377C14.6954 3.80449 14.6958 3.80484 14.6965 3.80556C15.997 5.22871 16.7091 7.05955 16.7091 9.0001Z" fill="#D8A016" />
                <path d="M3.8036 14.6948C3.78245 14.6754 3.76129 14.6561 3.7405 14.6363C3.6756 14.5761 3.61141 14.5141 3.54866 14.4513C2.39588 13.2985 1.65329 11.8449 1.39404 10.2676C1.53711 10.3034 1.68592 10.3379 1.84082 10.3698C2.02046 11.9837 2.69994 13.4861 3.8036 14.6948Z" fill="#BC790D" />
                <path d="M9.32961 3.98706C10.1935 3.98706 11.1733 6.90948 11.1733 6.90948C11.1733 6.90948 14.2555 6.93831 14.5225 7.75985C14.7894 8.58144 12.3128 10.4164 12.3128 10.4164C12.3128 10.4164 13.2379 13.3566 12.539 13.8644C11.8401 14.3722 9.32965 12.5838 9.32965 12.5838C9.32965 12.5838 6.81919 14.3722 6.12031 13.8644C5.42143 13.3566 6.34649 10.4164 6.34649 10.4164C6.34649 10.4164 3.86988 8.58144 4.13683 7.75985C4.40378 6.93827 7.48597 6.90948 7.48597 6.90948C7.48597 6.90948 8.46576 3.98706 9.32961 3.98706Z" fill="#D38D13" />
                <path d="M5.9581 4.75026C4.96401 5.41138 4.35481 6.24304 4.00112 5.71096C3.64718 5.17885 4.16595 4.21162 5.16007 3.55028C6.15416 2.88937 7.24696 2.78478 7.60069 3.31711C7.95481 3.84918 6.95219 4.08913 5.9581 4.75026Z" fill="#FFD364" />
                <path d="M9.00006 3.65747C9.86392 3.65747 10.8438 6.57989 10.8438 6.57989C10.8438 6.57989 13.926 6.60872 14.1929 7.43026C14.4599 8.25185 11.9833 10.0868 11.9833 10.0868C11.9833 10.0868 12.9083 13.027 12.2094 13.5348C11.5106 14.0426 9.00006 12.2542 9.00006 12.2542C9.00006 12.2542 6.4896 14.0426 5.79072 13.5348C5.09184 13.027 6.0169 10.0868 6.0169 10.0868C6.0169 10.0868 3.54029 8.25185 3.80724 7.43026C4.07419 6.60868 7.15639 6.57989 7.15639 6.57989C7.15639 6.57989 8.1362 3.65747 9.00006 3.65747Z" fill="#FFEE1D" />
                <path d="M11.9832 10.0869C11.9832 10.0869 12.9083 13.0271 12.2095 13.5348C11.5103 14.0425 8.99996 12.254 8.99996 12.254C8.99996 12.254 6.48965 14.0425 5.79044 13.5348C5.2759 13.1608 5.64164 11.4684 5.8704 10.6018C7.21646 10.4372 10.0283 9.71681 11.217 6.59155C12.0456 6.62956 13.9837 6.78661 14.1927 7.43024C14.4598 8.25171 11.9832 10.0869 11.9832 10.0869Z" fill="#F9D521" />
                <path d="M8.41718 5.52168C8.1682 6.18969 8.05862 6.76561 7.88235 6.69992C7.70608 6.63423 7.76503 6.03941 8.01401 5.3714C8.263 4.70339 8.60776 4.21514 8.78403 4.28083C8.96034 4.34655 8.66621 4.85367 8.41718 5.52168Z" fill="#FFFC99" />
                <path d="M5.8083 7.36215C5.10372 7.47008 4.54723 7.65474 4.5189 7.46864C4.49021 7.28291 5.03846 7.04482 5.7434 6.93689C6.44798 6.82932 7.04248 6.89279 7.07081 7.07852C7.09914 7.26466 6.51324 7.25458 5.8083 7.36215Z" fill="#FFFC99" />
            </svg>