<svg width="40" height="40" viewBox="0 0 40 40" fill="none" xmlns="http://www.w3.org/2000/svg">
<rect x="0.5" y="0.5" width="39" height="39" rx="10.5" fill="white"/>
<rect x="0.5" y="0.5" width="39" height="39" rx="10.5" stroke="white"/>
<path d="M15.125 17.1667H22.4375V15.5476C22.4375 14.873 22.2005 14.2996 21.7266 13.8274C21.2526 13.3552 20.6771 13.119 20 13.119C19.3229 13.119 18.7474 13.3552 18.2734 13.8274C17.7995 14.2996 17.5625 14.873 17.5625 15.5476H15.9375C15.9375 14.4278 16.3337 13.4733 17.1262 12.6843C17.9186 11.8953 18.8766 11.5005 20 11.5C21.1234 11.4995 22.0816 11.8942 22.8746 12.6843C23.6676 13.4744 24.0636 14.4289 24.0625 15.5476V17.1667H24.875C25.3219 17.1667 25.7046 17.3253 26.0231 17.6427C26.3416 17.96 26.5005 18.341 26.5 18.7857V26.881C26.5 27.3262 26.341 27.7075 26.0231 28.0248C25.7051 28.3421 25.3224 28.5005 24.875 28.5H15.125C14.6781 28.5 14.2957 28.3416 13.9777 28.0248C13.6598 27.708 13.5005 27.3267 13.5 26.881V18.7857C13.5 18.3405 13.6592 17.9595 13.9777 17.6427C14.2962 17.3259 14.6787 17.1672 15.125 17.1667ZM20 24.4524C20.4469 24.4524 20.8296 24.294 21.1481 23.9772C21.4666 23.6604 21.6255 23.2791 21.625 22.8333C21.6245 22.3876 21.4655 22.0065 21.1481 21.6903C20.8306 21.374 20.448 21.2154 20 21.2143C19.552 21.2132 19.1696 21.3719 18.8527 21.6903C18.5359 22.0087 18.3766 22.3897 18.375 22.8333C18.3734 23.277 18.5326 23.6582 18.8527 23.9772C19.1729 24.2961 19.5553 24.4545 20 24.4524Z" fill="#949494"/>
</svg>
