<?xml version="1.0" encoding="UTF-8"?>
<svg xmlns="http://www.w3.org/2000/svg" xmlns:xlink="http://www.w3.org/1999/xlink" width="23px" height="22px" viewBox="0 0 23 22" version="1.1">
<g id="surface1">
<path style=" stroke:none;fill-rule:nonzero;fill:rgb(30.980393%,20%,14.509805%);fill-opacity:1;" d="M 11.5 0 C 17.601562 0 22.5 4.898438 22.5 11 C 22.5 17.101562 17.601562 22 11.5 22 C 5.398438 22 0.5 17.101562 0.5 11 C 0.5 4.898438 5.398438 0 11.5 0 Z M 11.5 0 "/>
<path style=" stroke:none;fill-rule:nonzero;fill:rgb(100%,100%,100%);fill-opacity:1;" d="M 14.601562 8.800781 C 14.601562 8.800781 9.898438 8.800781 9.898438 8.800781 L 9.898438 7.898438 C 9.898438 7 10.601562 6.300781 11.5 6.300781 C 12.398438 6.300781 12.898438 6.800781 13 7.5 L 14 7.5 C 13.800781 6.199219 12.800781 5.199219 11.398438 5.199219 C 10 5.199219 8.800781 6.398438 8.800781 7.800781 L 8.800781 8.800781 L 8.300781 8.800781 C 7.699219 8.800781 7.300781 9.300781 7.300781 9.800781 L 7.300781 15 C 7.300781 15.601562 7.800781 16 8.300781 16 L 14.601562 16 C 15.199219 16 15.601562 15.5 15.601562 15 L 15.601562 9.800781 C 15.601562 9.199219 15.101562 8.800781 14.601562 8.800781 Z M 11.5 13.601562 C 10.898438 13.601562 10.5 13.101562 10.5 12.601562 C 10.5 12.101562 11 11.601562 11.5 11.601562 C 12 11.601562 12.5 12.101562 12.5 12.601562 C 12.5 13.101562 12 13.601562 11.5 13.601562 Z M 11.5 13.601562 "/>
</g>
</svg>
