<svg xmlns="http://www.w3.org/2000/svg" width="15" height="16" viewBox="0 0 15 16" fill="none">
                                            <path d="M14.7033 14.6444C14.5184 14.5367 13.3925 13.8395 12.7901 12.5788C14.197 11.2633 14.9972 9.43318 14.9972 7.56023C14.9972 3.68396 11.6173 0.500977 7.49862 0.500977C3.37995 0.500977 0 3.68396 0 7.56023C0 11.4365 3.37995 14.6195 7.49862 14.6195C8.05151 14.6195 8.64539 14.5677 9.46476 14.3955C11.6183 15.5399 13.5513 15.5077 14.2867 15.4961C14.6141 15.492 14.8518 15.5511 14.9741 15.2129C15.0569 14.986 14.9344 14.724 14.7033 14.6444ZM8.37738 11.1045C8.37738 11.5898 7.98395 11.9833 7.49862 11.9833C7.01329 11.9833 6.61986 11.5898 6.61986 11.1045V7.56023C6.61986 7.0749 7.01329 6.68147 7.49862 6.68147C7.98395 6.68147 8.37738 7.0749 8.37738 7.56023V11.1045ZM7.49862 5.33408C7.01329 5.33408 6.61986 4.9406 6.61986 4.45532C6.61986 3.96999 7.01329 3.57656 7.49862 3.57656C7.98395 3.57656 8.37738 3.96999 8.37738 4.45532C8.37738 4.94062 7.98395 5.33408 7.49862 5.33408Z" fill="#4F3325" />
                                        </svg>