<svg xmlns="http://www.w3.org/2000/svg" width="15" height="19" viewBox="0 0 15 19" fill="none">
                                            <path d="M0.9375 18.75C0.68886 18.75 0.450403 18.6512 0.274588 18.4754C0.0987722 18.2996 0 18.0611 0 17.8125V0.9375C0 0.68886 0.0987722 0.450403 0.274588 0.274587C0.450403 0.098772 0.68886 0 0.9375 0H14.0625C14.3111 0 14.5496 0.098772 14.7254 0.274587C14.9012 0.450403 15 0.68886 15 0.9375V17.8125C15 18.0611 14.9012 18.2996 14.7254 18.4754C14.5496 18.6512 14.3111 18.75 14.0625 18.75H0.9375ZM10.3125 13.125L15 9.375L10.3125 5.625V8.4375H4.6875V10.3125H10.3125V13.125Z" fill="#4F3325" />
                                        </svg>