<svg xmlns="http://www.w3.org/2000/svg" width="15" height="14" viewBox="0 0 15 14" fill="none">
                                            <path d="M14.4107 4.88382C14.0342 3.99271 13.4884 3.18311 12.8036 2.4999C12.1204 1.81503 11.3108 1.26923 10.4196 0.892753C9.49386 0.501011 8.51283 0.303467 7.5 0.303467C6.48716 0.303467 5.50614 0.501011 4.58036 0.892753C3.68924 1.26923 2.87964 1.81503 2.19643 2.4999C1.51157 3.18311 0.965766 3.99271 0.589286 4.88382C0.197545 5.80961 0 6.79063 0 7.80347C0 10.025 0.976004 12.1176 2.6769 13.5473L2.70536 13.5708C2.80246 13.6511 2.92466 13.6963 3.05022 13.6963H11.9515C12.077 13.6963 12.1992 13.6511 12.2963 13.5708L12.3248 13.5473C14.024 12.1176 15 10.025 15 7.80347C15 6.79063 14.8008 5.80961 14.4107 4.88382ZM6.99777 2.3124C6.99777 2.23873 7.05804 2.17847 7.1317 2.17847H7.8683C7.94196 2.17847 8.00223 2.23873 8.00223 2.3124V3.65168C8.00223 3.72534 7.94196 3.78561 7.8683 3.78561H7.1317C7.05804 3.78561 6.99777 3.72534 6.99777 3.65168V2.3124ZM3.44866 8.17177C3.44866 8.24543 3.38839 8.3057 3.31473 8.3057H1.97545C1.90179 8.3057 1.84152 8.24543 1.84152 8.17177V7.43516C1.84152 7.3615 1.90179 7.30124 1.97545 7.30124H3.31473C3.38839 7.30124 3.44866 7.3615 3.44866 7.43516V8.17177ZM4.96708 4.74822L4.44643 5.26887C4.42126 5.29379 4.38727 5.30778 4.35184 5.30778C4.31642 5.30778 4.28243 5.29379 4.25725 5.26887L3.30971 4.32132C3.28479 4.29615 3.2708 4.26216 3.2708 4.22674C3.2708 4.19131 3.28479 4.15732 3.30971 4.13215L3.83036 3.6115C3.88225 3.55961 3.96763 3.55961 4.01953 3.6115L4.96708 4.55905C5.01897 4.61095 5.01897 4.69632 4.96708 4.74822ZM9.8404 6.14778L8.42578 7.5624C8.50949 7.87545 8.42913 8.22199 8.18303 8.46809C8.09604 8.55525 7.9927 8.6244 7.87894 8.67159C7.76519 8.71877 7.64324 8.74306 7.52009 8.74306C7.39694 8.74306 7.27499 8.71877 7.16123 8.67159C7.04748 8.6244 6.94414 8.55525 6.85714 8.46809C6.76998 8.38109 6.70083 8.27775 6.65364 8.164C6.60646 8.05024 6.58217 7.92829 6.58217 7.80514C6.58217 7.68199 6.60646 7.56004 6.65364 7.44629C6.70083 7.33253 6.76998 7.2292 6.85714 7.1422C6.97339 7.0256 7.11834 6.94176 7.27737 6.89913C7.4364 6.85651 7.60386 6.85662 7.76283 6.89945L9.17745 5.48483C9.22935 5.43293 9.31473 5.43293 9.36663 5.48483L9.8404 5.9586C9.8923 6.0105 9.8923 6.0942 9.8404 6.14778ZM10.5603 5.27054L10.0396 4.7499C10.0147 4.72472 10.0007 4.69073 10.0007 4.65531C10.0007 4.61989 10.0147 4.58589 10.0396 4.56072L10.9872 3.61318C11.0391 3.56128 11.1244 3.56128 11.1763 3.61318L11.697 4.13382C11.7489 4.18572 11.7489 4.2711 11.697 4.323L10.7494 5.27054C10.7243 5.29547 10.6903 5.30945 10.6549 5.30945C10.6194 5.30945 10.5854 5.29547 10.5603 5.27054ZM13.0915 8.17177C13.0915 8.24543 13.0312 8.3057 12.9576 8.3057H11.6183C11.5446 8.3057 11.4844 8.24543 11.4844 8.17177V7.43516C11.4844 7.3615 11.5446 7.30124 11.6183 7.30124H12.9576C13.0312 7.30124 13.0915 7.3615 13.0915 7.43516V8.17177Z" fill="white" />
                                        </svg>