<svg width="15" height="14" viewBox="0 0 15 14" fill="none" xmlns="http://www.w3.org/2000/svg">
<path d="M12.6562 9.08008H2.34375C1.05141 9.08008 0 10.1315 0 11.4238C0 12.7162 1.05141 13.7676 2.34375 13.7676H12.6562C13.9486 13.7676 15 12.7162 15 11.4238C15 10.1315 13.9486 9.08008 12.6562 9.08008ZM3.10547 12.1562C2.70097 12.1562 2.37305 11.8283 2.37305 11.4238C2.37305 11.0193 2.70097 10.6914 3.10547 10.6914C3.50997 10.6914 3.83789 11.0193 3.83789 11.4238C3.83789 11.8283 3.50997 12.1562 3.10547 12.1562ZM6.03516 12.1562C5.63065 12.1562 5.30273 11.8283 5.30273 11.4238C5.30273 11.0193 5.63065 10.6914 6.03516 10.6914C6.43966 10.6914 6.76758 11.0193 6.76758 11.4238C6.76758 11.8283 6.43966 12.1562 6.03516 12.1562ZM8.96484 12.1562C8.56034 12.1562 8.23242 11.8283 8.23242 11.4238C8.23242 11.0193 8.56034 10.6914 8.96484 10.6914C9.36935 10.6914 9.69727 11.0193 9.69727 11.4238C9.69727 11.8283 9.36935 12.1562 8.96484 12.1562ZM11.8945 12.1562C11.49 12.1562 11.1621 11.8283 11.1621 11.4238C11.1621 11.0193 11.49 10.6914 11.8945 10.6914C12.299 10.6914 12.627 11.0193 12.627 11.4238C12.627 11.8283 12.299 12.1562 11.8945 12.1562Z" fill="white"/>
<path d="M10.2832 3.2207H9.69727V2.42969C9.69727 1.21812 8.71157 0.232422 7.5 0.232422C6.28843 0.232422 5.30273 1.21812 5.30273 2.42969V3.2207H4.7168C4.4741 3.2207 4.27734 3.41746 4.27734 3.66016V7.14648C4.27734 7.38918 4.4741 7.58594 4.7168 7.58594H10.2832C10.5259 7.58594 10.7227 7.38918 10.7227 7.14648V3.66016C10.7227 3.41746 10.5259 3.2207 10.2832 3.2207ZM7.93945 5.53891V5.71094C7.93945 5.95363 7.7427 6.15039 7.5 6.15039C7.2573 6.15039 7.06055 5.95363 7.06055 5.71094V5.53891C6.88998 5.47853 6.76758 5.31625 6.76758 5.125C6.76758 4.8823 6.96434 4.68555 7.20703 4.68555H7.79297C8.03566 4.68555 8.23242 4.8823 8.23242 5.125C8.23242 5.31625 8.11002 5.47853 7.93945 5.53891ZM8.81836 3.2207H6.18164V2.42969C6.18164 1.70274 6.77306 1.11133 7.5 1.11133C8.22694 1.11133 8.81836 1.70274 8.81836 2.42969V3.2207Z" fill="white"/>
</svg>
