<svg width="15" height="16" viewBox="0 0 15 16" fill="none" xmlns="http://www.w3.org/2000/svg">
<path d="M10.166 5.83203C7.50056 5.83203 5.33203 8.00056 5.33203 10.666C5.33203 13.3315 7.50056 15.5 10.166 15.5C12.8315 15.5 15 13.3315 15 10.666C15 8.00056 12.8315 5.83203 10.166 5.83203ZM10.166 10.2266C10.893 10.2266 11.4844 10.8179 11.4844 11.5449C11.4844 12.1171 11.1159 12.6003 10.6055 12.7823V13.7422H9.72656V12.7823C9.21615 12.6003 8.84766 12.1171 8.84766 11.5449H9.72656C9.72656 11.7874 9.92355 11.9844 10.166 11.9844C10.4085 11.9844 10.6055 11.7874 10.6055 11.5449C10.6055 11.3025 10.4085 11.1055 10.166 11.1055C9.43904 11.1055 8.84766 10.5141 8.84766 9.78711C8.84766 9.21494 9.21615 8.73172 9.72656 8.5497V7.58984H10.6055V8.5497C11.1159 8.73172 11.4844 9.21494 11.4844 9.78711H10.6055C10.6055 9.54465 10.4085 9.34766 10.166 9.34766C9.92355 9.34766 9.72656 9.54465 9.72656 9.78711C9.72656 10.0296 9.92355 10.2266 10.166 10.2266Z" fill="white"/>
<path d="M4.89258 5.83203C7.60313 5.83203 9.72656 4.67375 9.72656 3.19531C9.72656 1.71687 7.60313 0.5 4.89258 0.5C2.18203 0.5 0 1.71687 0 3.19531C0 4.67375 2.18203 5.83203 4.89258 5.83203Z" fill="white"/>
<path d="M0 10.3894V11.1054C0 12.5839 2.18203 13.7422 4.89258 13.7422C5.04633 13.7422 5.1953 13.728 5.34668 13.7206C5.00959 13.1906 4.75819 12.6025 4.61016 11.9738C2.65005 11.9197 0.948105 11.3174 0 10.3894Z" fill="white"/>
<path d="M4.47425 11.0831C4.46417 10.9448 4.45312 10.8068 4.45312 10.666C4.45312 10.2079 4.51315 9.7645 4.61552 9.33729C2.65298 9.28412 0.948955 8.68148 0 7.75269V8.46873C0 9.86874 1.97057 10.969 4.47425 11.0831Z" fill="white"/>
<path d="M4.89258 8.46873C4.89305 8.46873 4.89343 8.46867 4.89393 8.46867C5.18376 7.77598 5.60508 7.15154 6.12829 6.62836C5.73141 6.67852 5.32125 6.71092 4.89258 6.71092C2.80614 6.71092 0.993926 6.08874 0 5.11597V5.83201C0 7.31045 2.18203 8.46873 4.89258 8.46873Z" fill="white"/>
</svg>
