                                        <svg xmlns="http://www.w3.org/2000/svg" width="15" height="16" viewBox="0 0 15 16" fill="none">
                                            <path d="M1.9043 8.17578H0.439453C0.196758 8.17578 0 8.37254 0 8.61523V14.4746C0 14.7173 0.196758 14.9141 0.439453 14.9141H1.9043C2.14699 14.9141 2.34375 14.7173 2.34375 14.4746V8.61523C2.34375 8.37254 2.14699 8.17578 1.9043 8.17578Z" fill="#4F3325" />
                                            <path d="M13.3948 10.6658L10.7321 11.938C10.4821 12.8542 9.65027 13.5004 8.68456 13.5004C8.5614 13.5004 8.43706 13.4896 8.31501 13.468L5.34117 12.9437C5.10811 12.9026 4.93916 12.6882 4.96925 12.4534C5.00136 12.2028 5.23567 12.0326 5.4815 12.0759L8.46756 12.6025C9.14473 12.7219 9.79049 12.2697 9.9099 11.5925C10.0293 10.9154 9.57715 10.2696 8.89995 10.1502L7.24172 9.85782C7.01839 9.81845 6.81261 9.71597 6.64661 9.56146C5.71459 8.694 4.38105 8.45105 3.22266 8.88649V14.284L6.29408 15.2222C6.89768 15.4066 7.52373 15.5 8.15481 15.5C9.38537 15.5 10.5819 15.1466 11.6151 14.4781L14.4876 12.6195C14.9952 12.291 15.1511 11.6193 14.84 11.1008C14.5425 10.6049 13.9166 10.4165 13.3948 10.6658Z" fill="#4F3325" />
                                            <path d="M11.8756 5.22353C11.8948 5.10912 11.9225 4.7234 11.4708 4.56376C11.4675 4.56259 11.4645 4.56147 11.4612 4.5603V5.76537C11.6992 5.66014 11.8399 5.43563 11.8756 5.22353Z" fill="#4F3325" />
                                            <path d="M10.8753 2.823C10.7206 2.90266 10.6393 3.05901 10.6144 3.19117C10.5848 3.34826 10.6247 3.49606 10.716 3.5677C10.7624 3.60405 10.8163 3.6393 10.8753 3.67349V2.823H10.8753Z" fill="#4F3325" />
                                            <path d="M11.1914 8.11719C13.2915 8.11719 15 6.40865 15 4.30859C15 2.20853 13.2915 0.5 11.1914 0.5C9.09135 0.5 7.38281 2.20853 7.38281 4.30859C7.38281 6.40865 9.09135 8.11719 11.1914 8.11719ZM9.9595 5.69987C10.048 5.56449 10.2297 5.52643 10.3651 5.61509C10.5695 5.74883 10.6937 5.79992 10.8754 5.81794V4.32992C10.6524 4.22937 10.4879 4.13346 10.3545 4.02878C10.089 3.82057 9.96794 3.45805 10.0387 3.08269C10.116 2.67227 10.4012 2.34591 10.7831 2.23086C10.8144 2.22145 10.845 2.21337 10.8754 2.2059V1.96484C10.8754 1.80307 11.0065 1.67187 11.1683 1.67187C11.3301 1.67187 11.4613 1.80307 11.4613 1.96484V2.17197C11.7933 2.22037 12.0268 2.38077 12.1377 2.50804C12.244 2.63003 12.2312 2.81507 12.1092 2.92136C11.9876 3.02727 11.8034 3.01502 11.6969 2.89411C11.6915 2.8886 11.6138 2.8117 11.4613 2.77007V3.9369C11.53 3.96268 11.5989 3.98756 11.6662 4.01138C12.2439 4.21555 12.5529 4.7295 12.4535 5.32071C12.3757 5.78343 12.0182 6.25253 11.4613 6.37915V6.65234C11.4613 6.81412 11.3301 6.94531 11.1683 6.94531C11.0065 6.94531 10.8754 6.81412 10.8754 6.65234V6.4056C10.594 6.38606 10.3688 6.31774 10.0443 6.10543C9.90888 6.01686 9.87094 5.83528 9.9595 5.69987Z" fill="#4F3325" />
                                            <path d="M3.625 1H2.375C2.1679 1 2 1.1752 2 1.3913V6.6087C2 6.8248 2.1679 7 2.375 7H3.625C3.8321 7 4 6.8248 4 6.6087V1.3913C4 1.1752 3.8321 1 3.625 1Z" fill="#4F3325" />
                                            <path d="M-7.1031e-08 3.375L-1.63918e-08 4.625C-7.33914e-09 4.8321 0.1752 5 0.391304 5L5.6087 5C5.8248 5 6 4.8321 6 4.625L6 3.375C6 3.1679 5.8248 3 5.6087 3L0.391304 3C0.1752 3 -8.00836e-08 3.1679 -7.1031e-08 3.375Z" fill="#4F3325" />
                                        </svg>