<svg xmlns="http://www.w3.org/2000/svg" width="15" height="16" viewBox="0 0 15 16" fill="none">
                                            <path d="M12.8033 2.69669C11.3867 1.28012 9.5033 0.5 7.5 0.5C5.4967 0.5 3.61326 1.28012 2.19669 2.69669C0.780115 4.11326 0 5.9967 0 8C0 10.0033 0.780115 11.8867 2.19669 13.3033C3.61326 14.7199 5.49667 15.5 7.5 15.5C9.50333 15.5 11.3867 14.7199 12.8033 13.3033C14.2199 11.8867 15 10.0033 15 8C15 5.99667 14.2199 4.11326 12.8033 2.69669ZM10.8148 7.32417C10.74 7.50459 10.564 7.62224 10.3687 7.62224H9.13031V11.7293C9.13031 11.996 8.91413 12.2122 8.64748 12.2122H6.35252C6.08587 12.2122 5.8697 11.996 5.8697 11.7293V7.62224H4.63128C4.436 7.62224 4.25996 7.50462 4.18522 7.32417C4.11051 7.14376 4.15181 6.93608 4.28989 6.79799L7.15858 3.92928C7.24912 3.83873 7.37192 3.78784 7.49997 3.78784C7.62801 3.78784 7.75084 3.8387 7.84136 3.92928L10.71 6.79799C10.8482 6.93608 10.8895 7.14373 10.8148 7.32417Z" fill="#4F3325" />
                                        </svg>