 <svg xmlns="http://www.w3.org/2000/svg" width="15" height="16" viewBox="0 0 15 16" fill="none">
                                            <g clip-path="url(#clip0_1271_2325)">
                                                <path d="M4.15798 4.67984C4.59183 4.24611 5.09708 3.90542 5.66002 3.66727C6.24332 3.42065 6.86234 3.29556 7.5 3.29556C8.13766 3.29556 8.75668 3.42065 9.33998 3.66727C9.90292 3.90542 10.4083 4.24611 10.842 4.67984C11.0295 4.86729 11.1995 5.06825 11.3514 5.28134V4.77448C11.3514 3.14919 10.0291 1.82694 8.40385 1.82694H4.74747V0.529297L0 3.52067L3.40256 5.6646C3.60889 5.30595 3.86169 4.97613 4.15798 4.67984Z" fill="#4F3325" />
                                                <path d="M15.0001 12.5231L11.5975 10.3792C11.3912 10.7378 11.1384 11.0675 10.8421 11.3639C10.4082 11.7976 9.90299 12.1383 9.34006 12.3764C8.75675 12.6231 8.13774 12.7482 7.50008 12.7482C6.86241 12.7482 6.2434 12.6231 5.6601 12.3764C5.09716 12.1383 4.59179 11.7976 4.15806 11.3639C3.9706 11.1765 3.80054 10.9755 3.64868 10.7624V11.2693C3.64868 12.8946 4.97093 14.2168 6.59622 14.2168H10.2527V15.5145L15.0001 12.5231Z" fill="#4F3325" />
                                                <path d="M3.65356 8.02188C3.65356 10.1462 5.37567 11.8685 7.50004 11.8685C9.62452 11.8685 11.3466 10.1462 11.3466 8.02188C11.3466 5.89751 9.62452 4.17529 7.50004 4.17529C5.37567 4.17529 3.65356 5.89751 3.65356 8.02188ZM6.03554 7.39669C6.03554 6.85321 6.4299 6.39625 7.21874 6.2857V5.76144H7.8968V6.27608C8.25272 6.30973 8.59901 6.40105 8.8731 6.55498L8.53161 7.37735C8.19984 7.20901 7.88719 7.1273 7.59377 7.1273C7.262 7.1273 7.15614 7.22343 7.15614 7.3389C7.15614 7.74287 9.01741 7.40619 9.01741 8.64707C9.01741 9.16652 8.64227 9.61856 7.8968 9.74845V10.2823H7.21874V9.77248C6.73775 9.74364 6.27129 9.61375 5.98267 9.4358L6.34819 8.60862C6.66565 8.79619 7.08885 8.91647 7.45918 8.91647C7.78133 8.91647 7.8968 8.84906 7.8968 8.7337C7.8968 8.31039 6.03554 8.65188 6.03554 7.39669Z" fill="#4F3325" />
                                            </g>
                                            <defs>
                                                <clipPath id="clip0_1271_2325">
                                                    <rect width="15" height="15" fill="white" transform="translate(0 0.5)" />
                                                </clipPath>
                                            </defs>
                                        </svg>