<svg width="15" height="16" viewBox="0 0 15 16" fill="none" xmlns="http://www.w3.org/2000/svg">
<g clip-path="url(#clip0_1271_2605)">
<path d="M4.15798 4.67984C4.59183 4.24611 5.09708 3.90542 5.66002 3.66727C6.24332 3.42065 6.86234 3.29556 7.5 3.29556C8.13766 3.29556 8.75668 3.42065 9.33998 3.66727C9.90292 3.90542 10.4083 4.24611 10.842 4.67984C11.0295 4.86729 11.1995 5.06825 11.3514 5.28134V4.77448C11.3514 3.14919 10.0291 1.82694 8.40385 1.82694H4.74747V0.529297L0 3.52067L3.40256 5.6646C3.60889 5.30595 3.86169 4.97613 4.15798 4.67984Z" fill="white"/>
<path d="M14.9998 12.5231L11.5973 10.3792C11.3909 10.7378 11.1381 11.0675 10.8419 11.3639C10.408 11.7976 9.90275 12.1383 9.33981 12.3764C8.75651 12.6231 8.1375 12.7482 7.49983 12.7482C6.86217 12.7482 6.24316 12.6231 5.65985 12.3764C5.09692 12.1383 4.59155 11.7976 4.15781 11.3639C3.97036 11.1765 3.8003 10.9755 3.64844 10.7624V11.2693C3.64844 12.8946 4.97069 14.2168 6.59598 14.2168H10.2525V15.5145L14.9998 12.5231Z" fill="white"/>
<path d="M3.65332 8.02188C3.65332 10.1462 5.37543 11.8685 7.49979 11.8685C9.62428 11.8685 11.3464 10.1462 11.3464 8.02188C11.3464 5.89751 9.62428 4.17529 7.49979 4.17529C5.37543 4.17529 3.65332 5.89751 3.65332 8.02188ZM6.03529 7.39669C6.03529 6.85321 6.42966 6.39625 7.2185 6.2857V5.76144H7.89656V6.27608C8.25247 6.30973 8.59877 6.40105 8.87286 6.55498L8.53136 7.37735C8.1996 7.20901 7.88695 7.1273 7.59352 7.1273C7.26176 7.1273 7.1559 7.22343 7.1559 7.3389C7.1559 7.74287 9.01717 7.40619 9.01717 8.64707C9.01717 9.16652 8.64203 9.61856 7.89656 9.74845V10.2823H7.2185V9.77248C6.7375 9.74364 6.27104 9.61375 5.98242 9.4358L6.34795 8.60862C6.66541 8.79619 7.08861 8.91647 7.45894 8.91647C7.78109 8.91647 7.89656 8.84906 7.89656 8.7337C7.89656 8.31039 6.03529 8.65188 6.03529 7.39669Z" fill="white"/>
</g>
<defs>
<clipPath id="clip0_1271_2605">
<rect width="15" height="15" fill="white" transform="translate(0 0.5)"/>
</clipPath>
</defs>
</svg>
