<svg width="15" height="21" viewBox="0 0 15 21" fill="none" xmlns="http://www.w3.org/2000/svg">
<path d="M3.1275 1.5C3.28266 1.06113 3.57012 0.681193 3.95026 0.412542C4.3304 0.143892 4.78451 -0.00024372 5.25 3.09355e-07H9.75C10.2155 -0.00024372 10.6696 0.143892 11.0497 0.412542C11.4299 0.681193 11.7173 1.06113 11.8725 1.5H12.75C13.3467 1.5 13.919 1.73705 14.341 2.15901C14.7629 2.58097 15 3.15326 15 3.75V18.75C15 19.3467 14.7629 19.919 14.341 20.341C13.919 20.7629 13.3467 21 12.75 21H2.25C1.65326 21 1.08097 20.7629 0.65901 20.341C0.237053 19.919 0 19.3467 0 18.75V3.75C0 3.15326 0.237053 2.58097 0.65901 2.15901C1.08097 1.73705 1.65326 1.5 2.25 1.5H3.1275ZM5.25 1.5C5.05109 1.5 4.86032 1.57902 4.71967 1.71967C4.57902 1.86032 4.5 2.05109 4.5 2.25C4.5 2.44891 4.57902 2.63968 4.71967 2.78033C4.86032 2.92098 5.05109 3 5.25 3H9.75C9.94891 3 10.1397 2.92098 10.2803 2.78033C10.421 2.63968 10.5 2.44891 10.5 2.25C10.5 2.05109 10.421 1.86032 10.2803 1.71967C10.1397 1.57902 9.94891 1.5 9.75 1.5H5.25ZM3 9.75C3 9.94891 3.07902 10.1397 3.21967 10.2803C3.36032 10.421 3.55109 10.5 3.75 10.5H8.25C8.44891 10.5 8.63968 10.421 8.78033 10.2803C8.92098 10.1397 9 9.94891 9 9.75C9 9.55109 8.92098 9.36032 8.78033 9.21967C8.63968 9.07902 8.44891 9 8.25 9H3.75C3.55109 9 3.36032 9.07902 3.21967 9.21967C3.07902 9.36032 3 9.55109 3 9.75ZM3 14.25C3 14.4489 3.07902 14.6397 3.21967 14.7803C3.36032 14.921 3.55109 15 3.75 15H8.25C8.44891 15 8.63968 14.921 8.78033 14.7803C8.92098 14.6397 9 14.4489 9 14.25C9 14.0511 8.92098 13.8603 8.78033 13.7197C8.63968 13.579 8.44891 13.5 8.25 13.5H3.75C3.55109 13.5 3.36032 13.579 3.21967 13.7197C3.07902 13.8603 3 14.0511 3 14.25ZM11.25 10.5C11.4489 10.5 11.6397 10.421 11.7803 10.2803C11.921 10.1397 12 9.94891 12 9.75C12 9.55109 11.921 9.36032 11.7803 9.21967C11.6397 9.07902 11.4489 9 11.25 9C11.0511 9 10.8603 9.07902 10.7197 9.21967C10.579 9.36032 10.5 9.55109 10.5 9.75C10.5 9.94891 10.579 10.1397 10.7197 10.2803C10.8603 10.421 11.0511 10.5 11.25 10.5ZM11.25 15C11.4489 15 11.6397 14.921 11.7803 14.7803C11.921 14.6397 12 14.4489 12 14.25C12 14.0511 11.921 13.8603 11.7803 13.7197C11.6397 13.579 11.4489 13.5 11.25 13.5C11.0511 13.5 10.8603 13.579 10.7197 13.7197C10.579 13.8603 10.5 14.0511 10.5 14.25C10.5 14.4489 10.579 14.6397 10.7197 14.7803C10.8603 14.921 11.0511 15 11.25 15Z" fill="white"/>
</svg>
